<?xml version="1.0" encoding="UTF-8"?>
<svg id="Layer_1" data-name="Layer 1" xmlns="http://www.w3.org/2000/svg" viewBox="0 0 173.49 173.62">
  <defs>
    <style>
      .cls-1 {
        fill: #898989;
        stroke-width: 0px;
      }
    </style>
  </defs>
  <path class="cls-1" d="m86.74,0C39.88,0,1.69,37.14,0,83.6h41.6c.41-3.27,1.66-6.09,3.38-8.79-.54-1.23-.57-2.75.24-4.39,3.9-7.88,9.49-14.23,16.77-19.16.25-.17.49-.3.73-.41,5.16-4.16,11.09-4.48,17.26-5.04,1.09-.3,2.18-.58,3.28-.84.62-.15,1.21-.18,1.76-.12.36-.06.72-.12,1.09-.17,7.16-.94,14.28.95,20.79,3.88,12.38,5.58,22.31,18.25,23.89,31.86.06.53.04,1.02-.03,1.46.12.35.25.69.37,1.04.08.23.13.45.18.67h42.19C171.8,37.14,133.61,0,86.74,0Z"/>
  <path class="cls-1" d="m119.76,83.02c-.16-.91-.21-1.41-.15-2.11-2.88-6.16-7.35-11.78-13.48-14.73-8.19-3.94-17.64-3.55-26.46-2.78-5.81.51-12.18,1.37-17.19,4.57-.23.15-.46.31-.68.47-.99,1.67-2.01,3.33-3.2,4.88-.35.45-.71.9-1.07,1.34-.03.1-.08.2-.11.3-.42,1.35-1.22,2.27-2.18,2.82-.64,1.85-1.11,3.8-1.48,5.77,0,.02,0,.04-.01.05h66.16c-.06-.19-.1-.38-.14-.58Z"/>
  <path class="cls-1" d="m116.8,104.61c.02-.83.2-1.67.58-2.45,1.38-2.83,1.92-5.56,2.08-8.56H54.07c1.19,3.12,2.31,6.34,4.09,9.13,2.33,3.65,6,6.76,9.6,9.11,6.69,4.38,14.45,6.46,22.43,6.37,11.27-.12,20.5-4.9,26.33-12.98.08-.21.17-.42.28-.62Z"/>
  <path class="cls-1" d="m132.16,93.6c0,.05-.01.11-.02.16-.86,4.46-2.32,8.6-4.3,12.34-.51,1.39-1.22,2.61-2.23,3.73,0,0-.01.01-.02.02-7.36,10.97-19.58,17.77-33.88,18.33-10.14.4-20.47-2.13-29-7.7-4.3-2.81-8.37-6.28-11.54-10.34-3.29-4.22-4.73-9.32-6.81-14.16-.35-.82-.48-1.62-.44-2.37H.2c3.46,44.77,40.89,80.02,86.55,80.02s83.08-35.25,86.55-80.02h-41.13Z"/>
  <path class="cls-1" d="m118.81,79.29c-2.88-5.52-7.09-10.43-12.68-13.12-8.19-3.94-17.64-3.55-26.46-2.78-5.81.51-12.18,1.37-17.19,4.57-.24.15-.46.31-.68.47-.99,1.67-2.01,3.33-3.2,4.87-.35.45-.71.9-1.07,1.34-.03.1-.08.2-.11.3-.42,1.34-1.21,2.25-2.16,2.81-.32.93-.61,1.87-.86,2.84-.38,2.01-.59,4.09-.59,6.21,0,3.83.66,7.51,1.87,10.93.71,1.73,1.49,3.43,2.48,4.99,2.33,3.65,6,6.76,9.6,9.11,6.69,4.38,14.45,6.46,22.43,6.37,3.87-.04,7.5-.64,10.84-1.72,11.03-5.32,18.65-16.61,18.65-29.68,0-2.59-.31-5.1-.87-7.52Z"/>
  <path class="cls-1" d="m86.74,55.47c-1.62,0-3.21.12-4.77.35-4.32,1.34-8.45,3.23-12.63,4.94-1.93,1.14-3.72,2.44-5.34,3.93-1.76,2.89-3.34,5.92-5.41,8.61-.35.45-.71.9-1.07,1.34-.03.1-.08.2-.11.3-.38,1.19-1.05,2.05-1.86,2.62-1.21,3.44-1.89,7.13-1.89,10.99,0,18.27,14.81,33.08,33.08,33.08s33.08-14.81,33.08-33.08-14.81-33.08-33.08-33.08Z"/>
</svg>